<?xml version="1.0" standalone="no"?>
<!DOCTYPE svg PUBLIC "-//W3C//DTD SVG 20010904//EN"
 "http://www.w3.org/TR/2001/REC-SVG-20010904/DTD/svg10.dtd">
<svg version="1.0" xmlns="http://www.w3.org/2000/svg"
 width="48.000000" height="48.000000" viewBox="0 0 48.000000 48.000000"
 preserveAspectRatio="xMidYMid meet">

<style>

    path {
        fill: black;
    }

    @media (prefers-color-scheme: dark) {
        path {
            fill: white;
            opacity: 0.8;
        }
    }

</style>

<g transform="translate(0.000000,48.000000) scale(0.100000,-0.100000)"
fill="#000000" stroke="none">
<path d="M35 331 c-4 -22 -13 -42 -21 -45 -17 -6 -19 -62 -3 -72 6 -3 15 -1
19 6 5 8 9 7 13 -4 5 -12 0 -16 -18 -16 -18 0 -25 -5 -25 -20 0 -16 7 -20 33
-20 24 0 35 -6 42 -23 14 -31 66 -31 80 0 9 21 16 23 96 23 82 0 86 -1 97 -25
16 -34 56 -34 78 0 9 14 25 25 37 25 19 0 20 4 14 81 -4 44 -9 84 -12 90 -4 5
-28 9 -55 9 -34 0 -50 4 -54 16 -11 29 -26 3 -26 -47 0 -49 -13 -66 -23 -30
-3 11 -17 22 -36 26 -17 4 -40 19 -52 36 -20 28 -24 29 -99 29 l-78 0 -7 -39z
m65 -6 c0 -27 -25 -44 -40 -29 -15 15 0 54 21 54 14 0 19 -7 19 -25z m98 2
c28 -29 20 -37 -35 -37 -30 0 -45 5 -49 15 -18 46 46 63 84 22z m256 -28 c3
-17 6 -47 6 -65 l0 -34 -50 0 -50 0 0 65 0 65 44 0 c41 0 44 -2 50 -31z m-347
-59 c4 -12 3 -13 -5 -1 -6 8 -20 12 -36 9 -14 -3 -23 -1 -20 4 9 14 57 5 61
-12z m169 2 c1 -7 0 -8 -3 -2 -7 14 -53 13 -53 -2 0 -6 -3 -9 -6 -5 -3 3 -3
11 1 17 9 15 58 9 61 -8z m-190 -13 c3 -6 2 -15 -4 -21 -6 -6 -12 -6 -17 3 -5
8 -4 10 3 5 7 -4 12 -3 12 3 0 5 -6 12 -12 14 -10 4 -10 6 -1 6 6 1 15 -4 19
-10z m174 -15 c0 -8 -19 -13 -24 -6 -3 5 1 9 9 9 8 0 15 -2 15 -3z m70 -6 c0
-5 -14 -8 -31 -8 -16 0 -28 3 -26 8 3 4 17 7 31 7 14 0 26 -3 26 -7z m-137 -5
c-18 -2 -48 -2 -65 0 -18 2 -4 4 32 4 36 0 50 -2 33 -4z m-125 -30 c-10 -2
-26 -2 -35 0 -10 3 -2 5 17 5 19 0 27 -2 18 -5z m70 -19 c3 -22 -21 -39 -39
-28 -11 6 -12 38 -2 48 13 13 38 1 41 -20z m170 19 c-27 -2 -69 -2 -95 0 -27
2 -5 3 47 3 52 0 74 -1 48 -3z m106 -10 c4 -9 1 -23 -7 -30 -7 -8 -21 -11 -30
-7 -17 6 -23 35 -10 47 12 13 41 7 47 -10z"/>
<path d="M384 306 c-3 -8 -4 -27 -2 -43 2 -24 8 -28 36 -31 35 -4 37 1 26 57
-5 24 -12 31 -31 31 -13 0 -26 -6 -29 -14z m41 -46 c3 -5 -1 -10 -9 -10 -9 0
-16 5 -16 10 0 6 4 10 9 10 6 0 13 -4 16 -10z"/>
<path d="M105 159 c-10 -15 3 -25 16 -12 7 7 7 13 1 17 -6 3 -14 1 -17 -5z"/>
<path d="M380 150 c0 -5 5 -10 10 -10 6 0 10 5 10 10 0 6 -4 10 -10 10 -5 0
-10 -4 -10 -10z"/>
</g>
</svg>
